

<svg xmlns="http://www.w3.org/2000/svg" xml:space="preserve" width="2000" height="2000" style="shape-rendering:geometricPrecision;text-rendering:geometricPrecision;image-rendering:optimizeQuality;fill-rule:evenodd;clip-rule:evenodd"><defs><clipPath id="id0"><path d="M1024 0c565.539 0 1024 458.461 1024 1024s-458.461 1024-1024 1024S0 1589.539 0 1024 458.461 0 1024 0z"/></clipPath><style>.fil1{fill:#b4e1c5}.fil5,.fil6{fill:#212121\;fill-rule:nonzero}.fil5{fill:#37474f}</style></defs><g id="Layer_x0020_1"><path d="M1024 0c565.539 0 1024 458.461 1024 1024s-458.461 1024-1024 1024S0 1589.539 0 1024 458.461 0 1024 0z" style="fill:#b4e1c5"/><g style="clip-path:url(#id0)"><g id="_341207848"><path id="_3329218081" class="fil1" d="M669.409 559.015 1805.29 1694.9l1.1 1.13 1.03 1.21.95 1.27.85 1.34.77 1.4L674.111 565.367l-.768-1.398-.857-1.34-.945-1.274-1.027-1.206z"/><path id="_332921832" class="fil1" d="M674.111 565.367 1809.99 1701.25l48.66 78.46L722.767 643.828z"/><path id="_332922984" class="fil1" d="M722.841 643.78 1858.72 1779.66l.67 1.14.59 1.17.52 1.18.45 1.2.39 1.21.31 1.23.25 1.23.17 1.24L726.192 653.375l-.177-1.238-.246-1.232-.313-1.224-.383-1.213-.451-1.199-.523-1.183-.593-1.163z"/><path id="_332922840" class="fil1" d="M640.385 599.197 1776.27 1735.08h-153.02L487.367 599.197z"/><path id="_332923872" class="fil1" d="m1568.85 741.95 1135.88 1135.88 1.12 1.31 1.07 1.33 1.04 1.36.99 1.38.96 1.39.91 1.42.87 1.43.84 1.46.78 1.48.75 1.49.7 1.51.66 1.53.61 1.54.57 1.56.53 1.58.48 1.59.44 1.61.39 1.62.34 1.64.3 1.64.24 1.66.21 1.68.15 1.68.1 1.69.06 1.71.01 1.72-.05 1.72-.09 1.73-.14 1.75L1583.68 787.153l.15-1.742.09-1.734.04-1.724v-1.716l-.06-1.706-.1-1.695-.16-1.683-.2-1.672-.25-1.661-.29-1.647-.34-1.634-.39-1.621-.44-1.607-.48-1.592-.53-1.577-.57-1.561-.61-1.545-.66-1.528-.7-1.511-.75-1.493-.79-1.475-.83-1.456-.87-1.437-.91-1.417-.96-1.396-.99-1.376-1.04-1.355-1.07-1.332z"/><path id="_332923464" class="fil1" d="M1583.68 787.153 2719.57 1923.04 2685 2279.03 1549.12 1143.15z"/><path id="_332923776" class="fil1" d="M1549.12 1143.15 2685 2279.03l-.17 1.65-.21 1.64-.25 1.63-.28 1.62-.31 1.6-.34 1.6-.37 1.59-.41 1.57-.43 1.56-.47 1.54-.5 1.53-.53 1.52-.56 1.5-.59 1.49-.62 1.46-.65 1.46-.68 1.43-.7 1.42-.74 1.39-.76 1.38-.79 1.36-.82 1.33-.85 1.32-.87 1.3-.9 1.27-.92 1.25-.95 1.23-.98 1.2-1 1.18-1.03 1.15-1.05 1.13-1.08 1.1-1135.88-1135.88 1.08-1.1 1.05-1.13 1.03-1.16 1-1.17.98-1.21.95-1.22.92-1.25.9-1.28.87-1.29.85-1.32.82-1.34.79-1.35.76-1.38.74-1.4.7-1.41.68-1.44.65-1.45.62-1.47.59-1.48.56-1.5.53-1.52.5-1.53.47-1.54.43-1.56.41-1.58.37-1.58.34-1.6.31-1.61.28-1.61.24-1.63.21-1.64z"/><path id="_332923488" class="fil1" d="m1528.31 1188.55 1135.88 1135.88-1.11 1.09-1.13 1.05-1.16 1.03-1.17 1.01-1.2.97-1.22.95-1.24.91-1.27.89-1.28.86-1.31.82-1.33.8-1.34.76-1.37.73-1.39.7-1.4.66-1.43.64-1.44.59-1.46.56-1.49.53-1.5.49-1.51.46-1.54.41-1.55.38-1.57.35-1.58.3-1.61.27-1.61.22-1.64.19-1.65.14-1.66.11-1.69.06-1.69.02L1482.77 1207.5l1.69-.02 1.68-.07 1.67-.1 1.65-.15 1.63-.18 1.62-.23 1.61-.26 1.58-.31 1.57-.34 1.55-.38 1.54-.42 1.51-.45 1.5-.49 1.48-.53 1.47-.56 1.44-.6 1.43-.63 1.4-.66 1.39-.7 1.36-.73 1.35-.77 1.33-.79 1.3-.83 1.29-.85 1.26-.89 1.25-.92 1.22-.94 1.2-.98 1.17-1 1.16-1.03 1.13-1.06z"/><path id="_332923272" class="fil1" d="M726.192 653.375 1862.07 1789.26l11.34 65.05L737.532 718.429z"/><path id="_332923608" class="fil1" d="M822.787 1207.5 1958.67 2343.38l15.96 91.58L838.752 1299.08z"/><path id="_332923200" class="fil1" d="M487.367 599.197 1623.25 1735.08l-2.39-.12-2.31-.35-2.24-.58-2.14-.78-2.04-.99-1.93-1.17-1.79-1.34-1.66-1.51L470.868 592.362l1.657 1.506 1.797 1.344 1.924 1.168 2.038.983 2.145.785 2.236.576 2.316.353z"/><path id="_332923704" class="fil1" d="m1482.77 1207.5 1135.88 1135.88h-659.98L822.787 1207.5z"/><path id="_332924208" class="fil1" d="m1489.14 1345.75 1135.88 1135.88h-79.46L1409.68 1345.75z"/><path id="_332924328" class="fil1" d="m1415.17 1350.78 1135.88 1135.88 1.42 1.46 1.39 1.49 1.35 1.52 1.31 1.55 1.28 1.59 1.24 1.61 1.2 1.65 1.16 1.68 1.12 1.7 1.09 1.74 1.04 1.76 1 1.79.95 1.81.92 1.84.87 1.87.83 1.89.78 1.91.74 1.93.68 1.96.65 1.98.59 2 .55 2.02.5 2.04.45 2.06.39 2.08.35 2.1.3 2.11.24 2.13.19 2.14.14 2.16.08 2.18.03 2.18L1440 1410.71l-.03-2.19-.08-2.17-.14-2.16-.19-2.14-.24-2.13-.3-2.11-.35-2.1-.39-2.08-.45-2.06-.5-2.04-.55-2.02-.59-2-.65-1.98-.69-1.96-.73-1.93-.78-1.92-.83-1.89-.87-1.86-.92-1.84-.95-1.82-1-1.78-1.04-1.77-1.09-1.73-1.12-1.7-1.16-1.68-1.2-1.65-1.24-1.61-1.28-1.59-1.31-1.55-1.35-1.53-1.39-1.48z"/><path id="_332924400" class="fil1" d="m1300.8 1345.75 1135.88 1135.88h-330.42L970.38 1345.75z"/><path id="_332924496" class="fil1" d="m1415.17 1470.64 1135.88 1135.89-1.45 1.42-1.49 1.38-1.52 1.35-1.56 1.32-1.58 1.27-1.62 1.24-1.65 1.2-1.67 1.17-1.71 1.12-1.73 1.08-1.76 1.04-1.79 1-1.82.96-1.84.91-1.86.87-1.89.83-1.91.78-1.94.74-1.96.69-1.98.64-2 .6-2.02.54-2.04.5-2.06.45-2.08.4-2.09.35-2.12.29-2.13.24-2.14.2-2.16.13-2.17.09-2.19.02-1135.88-1135.88 2.19-.03 2.17-.08 2.16-.14 2.14-.19 2.13-.24 2.12-.3 2.09-.34 2.08-.4 2.06-.45 2.04-.5 2.02-.55 2-.59 1.98-.64 1.96-.69 1.94-.74 1.91-.78 1.89-.83 1.86-.87 1.84-.91 1.82-.96 1.79-1 1.76-1.04 1.73-1.08 1.71-1.13 1.67-1.16 1.65-1.2 1.62-1.24 1.58-1.28 1.56-1.31 1.52-1.35 1.48-1.39z"/><path id="_332924544" class="fil1" d="m1355.24 1495.47 1135.88 1135.88-2.19-.02-2.17-.09-2.16-.13-2.14-.2-2.13-.24-2.12-.29-2.09-.35-2.08-.4-2.06-.45-2.04-.5-2.02-.54-2-.6-1.98-.64-1.96-.69-1.94-.74-1.91-.78-1.89-.83-1.86-.87-1.84-.91-1.82-.96-1.79-1-1.76-1.04-1.73-1.08-1.71-1.12-1.67-1.17-1.65-1.2-1.62-1.24-1.58-1.27-1.56-1.32-1.52-1.35-1.49-1.38-1135.88-1135.89 1.49 1.39 1.52 1.35 1.56 1.31 1.58 1.28 1.62 1.24 1.65 1.2 1.67 1.16 1.71 1.13 1.73 1.08 1.76 1.04 1.79 1 1.81.96 1.85.91 1.86.87 1.89.83 1.91.78 1.94.74 1.96.69 1.98.64 2 .59 2.02.55 2.04.5 2.06.45 2.08.4 2.09.34 2.12.3 2.12.24 2.15.19 2.16.14 2.17.08z"/><path id="_332923896" class="fil1" d="m1440 1410.71 1135.88 1135.88-.03 2.19-.08 2.18-.14 2.16-.19 2.14-.24 2.13-.3 2.11-.35 2.1-.39 2.07-.45 2.06-.5 2.05-.55 2.02-.59 2-.65 1.98-.68 1.95-.74 1.94-.78 1.91-.83 1.89-.87 1.87-.92 1.84-.95 1.81-1 1.79-1.04 1.76-1.09 1.74-1.12 1.7-1.16 1.68-1.2 1.65-1.24 1.61-1.28 1.59-1.31 1.55-1.35 1.52-1.39 1.49-1.42 1.46-1135.88-1135.89 1.42-1.45 1.39-1.49 1.35-1.52 1.31-1.56 1.28-1.58 1.24-1.62 1.2-1.64 1.16-1.68 1.12-1.71 1.08-1.73 1.05-1.76 1-1.79.95-1.81.92-1.84.87-1.87.83-1.89.78-1.91.73-1.94.69-1.96.65-1.98.59-2 .55-2.02.5-2.04.45-2.06.39-2.08.35-2.09.3-2.11.24-2.13.19-2.15.14-2.16.08-2.17z"/><path id="_332923944" class="fil1" d="M973.867 1348.84 2109.75 2484.72l.67.64.67.65.67.65L975.875 1350.78l-.663-.65-.67-.65z"/><path id="_332925360" class="fil1" d="M975.875 1350.78 2111.76 2486.66l1.42 1.46 1.38 1.49 1.35 1.52 1.32 1.55 1.27 1.59 1.24 1.61 1.2 1.65 1.17 1.68 1.12 1.7 1.08 1.74 1.04 1.76 1 1.79.96 1.81.91 1.84.87 1.87.83 1.89.78 1.91.74 1.93.69 1.96.64 1.98.6 2 .54 2.02.5 2.04.45 2.06.4 2.08.35 2.1.29 2.11.24 2.13.2 2.14.13 2.16.09 2.18.02 2.18L1000.7 1410.71l-.03-2.19-.08-2.17-.14-2.16-.19-2.14-.24-2.13-.295-2.11-.347-2.1-.398-2.08-.449-2.06-.499-2.04-.547-2.02-.595-2-.642-1.98-.69-1.96-.736-1.93-.782-1.92-.827-1.89-.87-1.86-.915-1.84-.957-1.82-1.001-1.78-1.04-1.77-1.083-1.73-1.122-1.7-1.162-1.68-1.202-1.65-1.239-1.61-1.276-1.59-1.315-1.55-1.35-1.53-1.385-1.48z"/><path id="_332925120" class="fil1" d="M861.506 1345.75 1997.39 2481.63h-42.07L819.434 1345.75z"/><path id="_332925144" class="fil1" d="M819.434 1345.75 1955.32 2481.63l-2.1-.07-2.05-.25-2.01-.43-1.94-.6-1.88-.77-1.8-.92-1.71-1.07-1.61-1.21-1.51-1.35L802.834 1339.08l1.502 1.35 1.612 1.21 1.71 1.07 1.799.92 1.878.77 1.947.6 2.005.43 2.054.25z"/><path id="_332924760" class="fil1" d="M915.943 1495.47 2051.82 2631.35l-2.18-.02-2.18-.09-2.16-.13-2.14-.2-2.13-.24-2.11-.29-2.1-.35-2.08-.4-2.06-.45-2.04-.5-2.02-.54-2-.6-1.98-.64-1.96-.69-1.93-.74-1.91-.78-1.89-.83-1.87-.87-1.84-.91-1.81-.96-1.79-1-1.76-1.04-1.74-1.08-1.7-1.12-1.68-1.17-1.65-1.2-1.61-1.24-1.59-1.27-1.55-1.32-1.52-1.35L858.955 1473.45l1.522 1.35 1.554 1.31 1.586 1.28 1.616 1.24 1.647 1.2 1.676 1.16 1.706 1.13 1.734 1.08 1.761 1.04 1.788 1 1.814.96 1.84.91 1.865.87 1.89.83 1.913.78 1.936.74 1.958.69 1.98.64 2.001.59 2.02.55 2.041.5 2.06.45 2.078.4 2.095.34 2.113.3 2.13.24 2.143.19 2.161.14 2.173.08z"/><path id="_332925792" class="fil1" d="m1000.7 1410.71 1135.88 1135.88-.02 2.19-.09 2.18-.13 2.16-.2 2.14-.24 2.13-.29 2.11-.35 2.1-.4 2.07-.45 2.06-.5 2.05-.54 2.02-.6 2-.64 1.98-.69 1.95-.74 1.94-.78 1.91-.83 1.89-.87 1.87-.91 1.84-.96 1.81-1 1.79-1.04 1.76-1.08 1.74-1.13 1.7-1.16 1.68-1.2 1.65-1.24 1.61-1.27 1.59-1.32 1.55-1.35 1.52-1.38 1.49-1.43 1.46L975.874 1470.64l1.42-1.45 1.386-1.49 1.35-1.52 1.314-1.56 1.277-1.58 1.239-1.62 1.201-1.64 1.163-1.68 1.123-1.71 1.082-1.73 1.041-1.76 1-1.79.958-1.81.914-1.84.871-1.87.827-1.89.781-1.91.737-1.94.69-1.96.642-1.98.595-2 .547-2.02.499-2.04.449-2.06.398-2.08.347-2.09.295-2.11.24-2.13.19-2.15.14-2.16.08-2.17z"/><path id="_332925816" class="fil1" d="M975.874 1470.64 2111.75 2606.53l-1.45 1.42-1.49 1.38-1.52 1.35-1.55 1.32-1.59 1.27-1.62 1.24-1.64 1.2-1.68 1.17-1.7 1.12-1.74 1.08-1.76 1.04-1.79 1-1.81.96-1.84.91-1.87.87-1.89.83-1.91.78-1.93.74-1.96.69-1.98.64-2 .6-2.02.54-2.05.5-2.06.45-2.07.4-2.1.35-2.11.29-2.13.24-2.14.2-2.16.13-2.18.09-2.19.02L915.943 1495.47l2.188-.03 2.173-.08 2.16-.14 2.144-.19 2.129-.24 2.113-.3 2.096-.34 2.077-.4 2.06-.45 2.041-.5 2.021-.55 2.001-.59 1.98-.64 1.959-.69 1.935-.74 1.913-.78 1.889-.83 1.865-.87 1.841-.91 1.814-.96 1.788-1 1.761-1.04 1.734-1.08 1.705-1.13 1.676-1.16 1.647-1.2 1.617-1.24 1.585-1.28 1.554-1.31 1.521-1.35 1.488-1.39z"/><path id="_332925624" class="fil1" d="M1505.64 1305.91 2641.52 2441.8l1.51 1.65 1.34 1.8 1.17 1.92.98 2.04.79 2.15.57 2.23.35 2.32.12 2.39-1135.88-1135.89-.12-2.38-.35-2.32-.58-2.23-.78-2.15-.98-2.04-1.17-1.92-1.34-1.8z"/><path id="_332925864" class="fil1" d="M1512.47 1322.41 2648.35 2458.3l-.12 2.38-.35 2.32-.57 2.23-.79 2.15-.98 2.04-1.17 1.92-1.34 1.8-1.51 1.66-1.66 1.5-1.79 1.35-1.93 1.16-2.04.99-2.14.78-2.24.58-2.31.35-2.39.12-1135.88-1135.88 2.39-.12 2.31-.36 2.24-.57 2.14-.79 2.04-.98 1.93-1.17 1.79-1.34 1.66-1.51 1.51-1.65 1.34-1.8 1.17-1.92.98-2.04.78-2.15.58-2.23.35-2.32z"/><path id="_341208352" class="fil1" d="M464.033 575.863c0-12.887 10.448-23.334 23.334-23.334h165.9c9.11 0 17 5.223 20.844 12.838l48.656 78.46.074-.047a23.248 23.248 0 0 1 3.35 9.594l11.34 65.054h779.8c1.616 0 3.767.132 6.408.387 15.853 1.538 30.686 8.68 41.54 19.345 13.321 13.092 20.21 30.366 18.406 48.993l-34.563 355.995c-1.71 17.629-9.196 33.783-20.813 45.4-11.704 11.704-27.378 18.95-45.54 18.95H822.787l15.965 91.581h650.388c12.887 0 23.334 10.447 23.334 23.334 0 12.886-10.447 23.334-23.334 23.334h-79.463a85.544 85.544 0 0 1 5.494 5.033c15.338 15.339 24.827 36.53 24.827 59.931 0 23.403-9.489 44.593-24.828 59.932-15.338 15.338-36.528 24.827-59.93 24.827-23.403 0-44.593-9.49-59.932-24.827-15.339-15.34-24.827-36.53-24.827-59.932s9.488-44.592 24.827-59.931a85.544 85.544 0 0 1 5.495-5.033H970.38a85.544 85.544 0 0 1 5.494 5.033c15.338 15.339 24.827 36.53 24.827 59.931 0 23.403-9.49 44.593-24.828 59.932-15.337 15.338-36.528 24.827-59.93 24.827-23.403 0-44.593-9.49-59.932-24.827-15.34-15.34-24.827-36.53-24.827-59.932s9.488-44.592 24.827-59.931a85.544 85.544 0 0 1 5.494-5.033h-42.072c-11.248.14-21.26-7.888-23.253-19.326l.019-.089-115.394-661.954-40.421-65.181H487.367c-12.886 0-23.334-10.448-23.334-23.334z"/></g></g><path d="M1024 0c565.539 0 1024 458.461 1024 1024s-458.461 1024-1024 1024S0 1589.539 0 1024 458.461 0 1024 0z" style="fill:none"/><path d="M487.333 552.53c-12.886 0-23.334 10.447-23.334 23.334 0 12.886 10.448 23.334 23.334 23.334h153.018l40.42 65.181 115.395 661.954 22.969-3.919-22.988 4.008c1.994 11.438 12.005 19.467 23.254 19.326h669.706c12.887 0 23.334-10.448 23.334-23.334 0-12.887-10.447-23.334-23.334-23.334H838.719l-15.965-91.581h659.982c18.161 0 33.836-7.246 45.54-18.95 11.617-11.617 19.103-27.771 20.813-45.4l34.562-355.995c.234-2.415.35-4.288.35-5.622 0-16.924-7.292-32.105-18.756-43.371-10.853-10.666-25.686-17.807-41.54-19.345-2.64-.255-4.791-.387-6.408-.387H737.498l-11.34-65.054a23.247 23.247 0 0 0-3.35-9.594l-.075.047-48.655-78.46c-3.844-7.615-11.734-12.838-20.845-12.838h-165.9z" style="fill:#6d4c41;fill-rule:nonzero"/><path d="M937.337 1018.4h194.973v-98.661H937.337v98.661zm421.637 0v-98.661h-194.973v98.661h194.973zm31.691-276.636v143.111h159.308l-4.686 34.864h-154.622v98.66H1537.9l-4.543 34.865h-142.693v130.903h-31.691v-130.903H1164v130.903h-31.692v-130.903H937.335v130.903h-31.69v-130.903h-121.73l-7.18-34.864h128.91v-98.661H772.067l-7.407-34.864h140.982V741.764h31.692v143.111h194.973V741.764h31.691v143.111h194.973V741.764h31.692z" style="fill:#a1887f;fill-rule:nonzero"/><path class="fil5" d="M915.909 1325.95c23.402 0 44.593 9.488 59.931 24.827 15.338 15.339 24.827 36.529 24.827 59.931 0 23.403-9.489 44.593-24.828 59.932-15.336 15.338-36.528 24.827-59.93 24.827s-44.593-9.49-59.932-24.827c-15.339-15.34-24.826-36.53-24.826-59.932s9.487-44.592 24.826-59.931c15.338-15.34 36.53-24.827 59.932-24.827zM1355.2 1325.95c23.402 0 44.593 9.488 59.931 24.827 15.338 15.339 24.827 36.529 24.827 59.931 0 23.403-9.489 44.593-24.828 59.932-15.338 15.338-36.528 24.827-59.93 24.827s-44.593-9.49-59.932-24.827c-15.339-15.34-24.826-36.53-24.826-59.932s9.487-44.592 24.826-59.931c15.338-15.34 36.528-24.827 59.932-24.827z"/><path class="fil6" d="M1355.2 1370.55c11.09 0 21.131 4.496 28.4 11.766 7.268 7.269 11.765 17.31 11.765 28.401 0 11.09-4.497 21.131-11.765 28.4-7.269 7.268-17.31 11.765-28.4 11.765s-21.132-4.497-28.4-11.765c-7.27-7.269-11.767-17.31-11.767-28.4s4.496-21.132 11.766-28.4c7.268-7.27 17.31-11.767 28.401-11.767zM915.909 1370.55c11.09 0 21.132 4.496 28.4 11.766 7.27 7.269 11.766 17.31 11.766 28.401 0 11.09-4.497 21.131-11.765 28.4-7.269 7.268-17.31 11.765-28.401 11.765-11.09 0-21.131-4.497-28.4-11.765-7.27-7.269-11.766-17.31-11.766-28.4s4.497-21.132 11.766-28.4c7.268-7.27 17.31-11.767 28.4-11.767z"/></g></svg>